<svg xmlns="http://www.w3.org/2000/svg" xmlns:xlink="http://www.w3.org/1999/xlink" id="Layer_1" x="0" y="0" enable-background="new 0 0 48 48" version="1.1" viewBox="0 0 48 48" xml:space="preserve"><g id="locked_network_alt"><g id="locked_network_alt_01_1_"><g><path fill="none" stroke="#000" stroke-linejoin="round" stroke-miterlimit="10" stroke-width=".72" d="M37,35v-4H11v4 M37,35 c-1.105,0-2,0.895-2,2s0.895,2,2,2s2-0.895,2-2S38.105,35,37,35z M24,27v8"/><circle cx="24" cy="37" r="2" fill="none" stroke="#000" stroke-linejoin="round" stroke-miterlimit="10" stroke-width=".72"/><circle cx="11" cy="37" r="2" fill="none" stroke="#000" stroke-linejoin="round" stroke-miterlimit="10" stroke-width=".72"/><line x1="24" x2="24" y1="19" y2="21" fill="none" stroke="#000" stroke-linecap="round" stroke-linejoin="round" stroke-miterlimit="10" stroke-width=".72"/><circle cx="24" cy="19" r="1"/></g><g id="lock_alt_01_1_"><g id="lock_3_"><path fill="none" stroke="#000" stroke-linecap="round" stroke-linejoin="round" stroke-miterlimit="10" stroke-width=".72" d="M26.5,15v-3.5c0-1.381-1.119-2.5-2.5-2.5s-2.5,1.119-2.5,2.5V15"/></g><rect width="10" height="10" x="19" y="15" fill="none" stroke="#000" stroke-linecap="round" stroke-linejoin="round" stroke-miterlimit="10" stroke-width=".72"/></g></g></g></svg>