<svg xmlns="http://www.w3.org/2000/svg" xmlns:xlink="http://www.w3.org/1999/xlink" id="Layer_1" width="32" height="32" x="0" y="0" enable-background="new 0 0 32 32" version="1.1" viewBox="0 0 32 32" xml:space="preserve"><style type="text/css">.st0{opacity:0;fill:#fff}</style><path d="M16,2C8.4,2,2,8.4,2,16s6.4,14,14,14s14-6.4,14-14S23.6,2,16,2z M22,17h-5v5h-2v-5h-5v-2h5v-5h2v5h5V17z"/><polygon id="inner-path" points="22 17 17 17 17 22 15 22 15 17 10 17 10 15 15 15 15 10 17 10 17 15 22 15" class="st0"/></svg>