<svg xmlns="http://www.w3.org/2000/svg" id="icon" viewBox="0 0 32 32"><defs><style>.cls-1{fill:none}</style></defs><title>bus</title><rect width="2" height="6" x="3" y="8"/><rect width="2" height="6" x="27" y="8"/><rect width="2" height="2" x="10" y="19"/><rect width="2" height="2" x="20" y="19"/><path d="M21,2H11A5,5,0,0,0,6,7V23a2,2,0,0,0,2,2v3h2V25H22v3h2V25a2,2,0,0,0,2-2V7A5,5,0,0,0,21,2Zm3,6v7H8V8ZM11,4H21a3,3,0,0,1,2.82,2H8.18A3,3,0,0,1,11,4ZM8,23V17H24v6Z" transform="translate(0 0)"/><rect id="_Transparent_Rectangle_" width="32" height="32" class="cls-1" data-name="&lt;Transparent Rectangle&gt;"/></svg>